<?xml version="1.0" standalone="no"?>
<!DOCTYPE svg PUBLIC "-//W3C//DTD SVG 20010904//EN"
 "http://www.w3.org/TR/2001/REC-SVG-20010904/DTD/svg10.dtd">
<svg version="1.0" xmlns="http://www.w3.org/2000/svg"
 width="16.000000pt" height="16.000000pt" viewBox="0 0 16.000000 16.000000"
 preserveAspectRatio="xMidYMid meet">
<metadata>
Created by potrace 1.11, written by Peter Selinger 2001-2013
</metadata>
<g transform="translate(0.000000,16.000000) scale(0.003200,-0.003200)"
fill="#000000" stroke="none">
<path d="M2426 3894 c-36 -64 -66 -121 -66 -125 0 -5 -4 -9 -9 -9 -5 0 -11 -8
-14 -17 -3 -10 -19 -40 -35 -68 -63 -108 -122 -218 -122 -226 0 -5 -4 -9 -9
-9 -5 0 -11 -8 -14 -17 -3 -10 -19 -40 -36 -68 -16 -27 -36 -61 -44 -75 -30
-54 -73 -130 -144 -253 -40 -71 -73 -133 -73 -138 0 -5 -3 -9 -8 -9 -4 0 -13
-15 -21 -32 -8 -18 -17 -35 -21 -38 -3 -3 -29 -48 -58 -100 -29 -52 -57 -102
-62 -110 -13 -22 -394 -689 -418 -730 -11 -19 -105 -184 -209 -367 l-191 -332
1631 0 c897 0 1627 3 1621 7 -5 4 -24 36 -43 72 -19 36 -39 68 -44 71 -5 3 -8
9 -8 13 2 13 -30 66 -40 66 -6 0 -7 5 -4 11 4 5 0 18 -8 27 -8 9 -26 38 -41
64 -45 83 -79 142 -97 173 -10 17 -37 65 -61 107 -23 42 -47 74 -52 71 -5 -3
-6 -1 -2 5 4 6 -4 28 -17 49 -13 21 -55 92 -92 158 -37 66 -72 123 -77 126 -5
3 -10 10 -10 15 0 15 -104 194 -110 189 -2 -3 -5 1 -5 8 0 8 -36 76 -80 153
-103 178 -123 213 -140 247 -8 15 -18 27 -22 27 -4 0 -8 6 -8 13 0 10 -93 176
-167 297 -11 19 -21 37 -21 40 0 3 -9 19 -19 35 -11 17 -30 47 -43 67 -12 21
-23 40 -23 42 0 3 -29 55 -65 116 -36 61 -65 115 -65 121 0 5 -4 9 -10 9 -5 0
-10 4 -10 10 0 9 -116 218 -194 350 -15 25 -29 53 -33 63 -3 9 -9 17 -13 17
-4 0 -37 -52 -74 -116z m124 -219 c18 -33 43 -75 56 -93 l22 -34 -56 -96 c-30
-54 -59 -101 -62 -105 -7 -8 -45 49 -105 157 -26 47 -27 51 -11 76 8 15 13 30
9 34 -3 3 -1 6 5 6 6 0 20 17 30 38 10 20 27 51 38 69 22 38 27 35 74 -52z
m-212 -307 c17 -29 39 -69 50 -89 11 -20 25 -45 32 -55 10 -16 3 -35 -46 -119
-31 -55 -62 -106 -68 -113 -10 -10 -25 9 -75 93 l-62 105 37 63 c20 34 37 68
37 75 0 6 4 12 9 12 5 0 15 15 23 33 12 29 24 47 31 47 1 0 16 -24 32 -52z
m372 26 c0 -8 4 -14 9 -14 5 0 11 -8 14 -17 7 -21 74 -142 89 -160 7 -9 -2
-34 -30 -85 -85 -156 -83 -154 -111 -102 -9 16 -36 64 -59 107 -24 42 -42 83
-40 90 2 6 28 55 58 109 51 89 70 109 70 72z m-92 -520 c38 -71 79 -147 92
-169 151 -267 206 -361 212 -363 4 -2 8 -8 8 -14 0 -5 28 -58 62 -116 33 -59
71 -125 84 -147 12 -22 70 -123 128 -224 58 -101 106 -187 106 -190 0 -4 -364
-7 -810 -7 -445 0 -810 1 -810 2 0 6 69 128 118 209 48 79 81 136 159 275 66
117 190 334 219 383 19 32 31 64 27 70 -3 7 -3 9 2 5 4 -4 40 50 79 120 165
292 184 327 184 336 0 5 6 12 13 17 17 10 38 -21 127 -187z m-501 159 c8 -10
21 -31 29 -48 8 -16 23 -43 34 -60 51 -81 51 -75 4 -156 -24 -41 -44 -79 -44
-86 0 -6 -4 -13 -8 -15 -4 -1 -40 -59 -79 -128 -39 -69 -83 -145 -97 -170 -15
-25 -33 -58 -42 -75 -8 -16 -50 -91 -93 -165 l-78 -135 -122 0 c-66 0 -121 3
-121 7 0 4 14 31 31 60 18 29 32 58 32 65 0 7 4 10 8 8 3 -3 12 9 19 26 8 17
24 46 36 65 13 19 21 34 19 34 -3 0 12 26 32 57 20 32 36 63 36 70 0 7 6 14
14 17 7 3 13 10 13 15 0 5 22 47 48 93 202 346 241 415 244 427 2 8 10 22 19
31 9 9 22 31 30 48 16 37 17 38 36 15z m842 -76 c28 -49 51 -93 51 -98 0 -6 5
-7 10 -4 6 4 9 3 8 -2 -4 -13 54 -123 62 -118 4 2 7 -2 7 -9 0 -7 72 -138 160
-292 88 -153 175 -306 193 -339 18 -33 36 -64 41 -70 25 -27 7 -32 -110 -32
l-118 0 -39 66 c-21 36 -40 68 -44 71 -3 3 -6 10 -7 16 -1 5 -29 56 -62 113
-34 56 -61 105 -61 107 0 2 -17 32 -38 67 -20 34 -51 88 -67 119 -17 32 -33
58 -37 58 -5 0 -8 5 -8 10 0 6 -27 58 -60 116 l-60 106 40 70 c22 38 40 73 40
78 0 5 4 10 9 12 5 2 11 10 13 18 3 13 20 32 24 27 1 -1 25 -42 53 -90z
m-1307 -1119 c-11 -18 -39 -67 -62 -108 -24 -41 -45 -77 -47 -80 -5 -5 -253
-8 -253 -3 0 2 11 21 25 43 14 22 25 44 25 50 0 5 3 10 8 10 4 0 13 12 19 28
7 15 22 42 33 60 l20 32 126 0 126 0 -20 -32z m1941 10 c45 -74 111 -194 109
-198 -1 -2 -56 -5 -121 -5 l-119 -1 -61 107 c-34 59 -61 109 -61 113 0 3 54 6
120 6 113 0 120 -1 133 -22z m-2155 -327 c31 -1 32 -2 20 -23 -7 -13 -11 -26
-10 -30 1 -5 -2 -8 -7 -8 -5 0 -11 -8 -15 -17 -3 -10 -11 -27 -18 -38 -49 -75
-57 -89 -52 -97 6 -10 -1 -10 -144 -12 -63 -1 -116 2 -118 6 -2 3 3 13 12 22
8 9 12 21 8 27 -4 8 -3 9 4 5 7 -4 12 -3 12 2 0 20 85 154 101 161 10 3 53 5
96 4 43 -1 93 -2 111 -2z m429 -4 c6 -7 -104 -203 -121 -215 -11 -7 -256 -11
-256 -4 0 2 17 34 39 70 69 119 81 142 73 144 -4 0 13 4 38 7 56 8 218 6 227
-2z m1089 4 c25 -1 34 -7 44 -31 7 -16 16 -30 21 -30 5 0 9 -4 9 -9 0 -5 18
-40 40 -79 22 -38 40 -71 40 -73 0 -4 -1189 -4 -1214 0 -5 0 -2 9 6 19 8 9 29
42 46 73 16 32 37 68 46 81 9 14 14 28 11 31 -3 4 -2 5 1 2 4 -2 12 1 18 8 9
9 122 12 457 10 244 -1 458 -2 475 -2z m434 -8 c4 -4 22 -35 40 -68 35 -64 61
-107 70 -115 3 -3 6 -12 7 -21 3 -13 -14 -15 -121 -15 -68 1 -126 3 -128 6
-10 13 -44 67 -56 90 -7 14 -27 48 -43 77 -16 28 -25 53 -19 55 21 7 243 -1
250 -9z m368 8 c17 -1 32 -5 32 -11 0 -5 18 -39 40 -75 22 -36 40 -68 40 -71
0 -3 9 -17 20 -31 11 -14 20 -29 20 -32 0 -4 -54 -7 -121 -6 -116 0 -121 1
-139 25 -11 14 -20 30 -20 37 0 6 -4 13 -8 15 -7 3 -82 133 -82 143 0 7 34 10
109 8 42 -1 91 -2 109 -2z"/>
<path d="M2483 2573 c-4 -10 -26 -49 -48 -88 -23 -38 -45 -77 -49 -85 -4 -8
-12 -24 -19 -35 -21 -35 -91 -155 -105 -180 -6 -13 -50 -88 -96 -167 l-84
-143 415 -3 c229 -1 418 0 421 2 5 6 -88 168 -103 178 -5 4 -6 8 -2 8 5 0 0
12 -11 28 -10 15 -63 105 -118 200 -54 95 -107 186 -116 202 -10 17 -26 44
-36 62 -22 38 -40 46 -49 21z m125 -400 c55 -95 100 -174 99 -174 -4 -3 -407
-6 -407 -3 0 5 51 95 77 137 13 20 20 37 16 37 -5 0 -3 4 3 8 6 4 32 44 59 90
26 46 48 82 50 80 1 -2 48 -81 103 -175z"/>
</g>
</svg>
